<svg id="search" xmlns="http://www.w3.org/2000/svg" width="20.142" height="20.142" viewBox="0 0 20.142 20.142">
  <path id="Path_3714" data-name="Path 3714" d="M4.464,145l-.7,2.617-2.563.054a10.089,10.089,0,0,1-.074-9.4h0l2.281.418,1,2.268A6.01,6.01,0,0,0,4.464,145Z" transform="translate(0 -132.829)" fill="#fbbb00"/>
  <path id="Path_3715" data-name="Path 3715" d="M271.3,208.176a10.067,10.067,0,0,1-3.59,9.735h0l-2.874-.147-.407-2.539a6,6,0,0,0,2.583-3.065h-5.385v-3.984H271.3Z" transform="translate(-251.336 -199.986)" fill="#518ef8"/>
  <path id="Path_3716" data-name="Path 3716" d="M45.684,315.161h0a10.074,10.074,0,0,1-15.176-3.081l3.264-2.672a5.99,5.99,0,0,0,8.631,3.067Z" transform="translate(-29.309 -297.237)" fill="#28b446"/>
  <path id="Path_3717" data-name="Path 3717" d="M44,2.319,40.735,4.99a5.989,5.989,0,0,0-8.829,3.136L28.625,5.439h0A10.073,10.073,0,0,1,44,2.319Z" transform="translate(-27.498)" fill="#f14336"/>
</svg>
